# xmcd CD database file
#
# Track frame offsets:
#	150
#	13515
#	23409
#	36982
#	48275
#	60337
#	69867
#	83724
#	94701
#	106945
#	120021
#	129253
#	141116
#	150964
#	164450
#	175814
#	188462
#	200262
#	211925
#	223719
#	235770
#	246581
#
# Disc length: 3447 seconds
#
# Revision: 0
# Processed by: cddbd v1.5.2PL0 Copyright (c) Steve Scherf et al.
# Submitted via: CDex 1.81
#
DISCID=0c0d7516
DTITLE=Loretta Lynn - 22 Greatest Hits
DYEAR=2015
DGENRE=Country
TTITLE0=Coal Miner's Daughter
TTITLE1=You Ain't Woman Enough To Take My Man
TTITLE2=Somebody Somewhere
TTITLE3=I'm A Honky Tonk Girl
TTITLE4=Blue Kentucky Girl
TTITLE5=Don't Come Home A-Drinkin'
TTITLE6=She's Got You
TTITLE7=The Other Woman
TTITLE8=The Home You're Tearin' Down
TTITLE9=Woman of the World
TTITLE10=Your Squaw Is On The Warpath
TTITLE11=Success
TTITLE12=Fist City
TTITLE13=When The Tingle Becomes A Chill
TTITLE14=Before I'm Over You
TTITLE15=What Kind Of Girl
TTITLE16=Wings Upon Your Horns
TTITLE17=The Pill
TTITLE18=After The Fire Is Gone
TTITLE19=Mr and Mrs Used To Be
TTITLE20=Lead Me On
TTITLE21=Sweet Thang
EXTD=YEAR: 2015
EXTT0=
EXTT1=
EXTT2=
EXTT3=
EXTT4=
EXTT5=
EXTT6=
EXTT7=
EXTT8=
EXTT9=
EXTT10=
EXTT11=
EXTT12=
EXTT13=
EXTT14=
EXTT15=
EXTT16=
EXTT17=
EXTT18=
EXTT19=
EXTT20=
EXTT21=
PLAYORDER=
